<svg xmlns="http://www.w3.org/2000/svg" viewBox="0 0 15.7 15.79"><path d="M5.45,9.45l-1.53.9L3.38,9.4,6.53,7.52l1.94,3.15-.87.56L6.53,9.53a3.32,3.32,0,0,0,3.69,5l.64,1a4.4,4.4,0,0,1-5.4-6.09Zm8.22,2.94,1.47-.87.56,1-3.15,1.89-1.94-3.15,1-.62.94,1.55a3.33,3.33,0,0,0-2.35-4.08l-.27-.06L9.25,7H9.4a4.4,4.4,0,0,1,4.28,5.4ZM7,1H1.46A.54.54,0,0,0,1,1.59V13.41a.54.54,0,0,0,.46.59H4.72a5.37,5.37,0,0,0,.75,1H1.38A1.59,1.59,0,0,1,0,13.27V1.73A1.59,1.59,0,0,1,1.38,0h6a.42.42,0,0,1,.33.17l4.15,4.4A.66.66,0,0,1,12,5V6.72a5.3,5.3,0,0,0-1-.45V5H7.73C7.33,5,7,4.45,7,4Zm1,.86V4h2L8,1.86Z"/></svg>