<svg xmlns="http://www.w3.org/2000/svg" viewBox="0 0 32 32"><title>icon-control</title><path style="fill:#ffffff" d="M13.11,7.33A3.73,3.73,0,0,0,9.47,4.5,3.82,3.82,0,0,0,5.83,7.33H2V9.22H5.83a3.73,3.73,0,0,0,3.64,2.83,3.82,3.82,0,0,0,3.64-2.83H30V7.33ZM9.47,9.22a.89.89,0,0,1-.93-.85V8.28a.89.89,0,0,1,.84-.94h.09a.89.89,0,0,1,.93.85v.09a.89.89,0,0,1-.84.94Zm13.06,2.83a3.82,3.82,0,0,1,3.64,2.83H30v1.89H26.17a3.82,3.82,0,0,1-3.64,2.83,3.73,3.73,0,0,1-3.64-2.83H2V14.88H18.89A3.82,3.82,0,0,1,22.53,12.05Zm0,4.72a.89.89,0,0,0,.93-.85v-.09a.94.94,0,0,0-1.87,0,.89.89,0,0,0,.84.94ZM9.47,19.6a3.82,3.82,0,0,1,3.64,2.83H30v1.89H13.11a3.82,3.82,0,0,1-3.64,2.83,3.73,3.73,0,0,1-3.64-2.83H2V22.43H5.83A3.82,3.82,0,0,1,9.47,19.6Zm0,4.72a.95.95,0,1,0-.94-.94.94.94,0,0,0,.94.94Z"/></svg>