<?xml version="1.0" encoding="utf-8"?>
<svg version="1.1" id="Layer_1" xmlns="http://www.w3.org/2000/svg" xmlns:xlink="http://www.w3.org/1999/xlink" x="0px" y="0px"
	 viewBox="0 0 40 40" style="enable-background:new 0 0 40 40;" xml:space="preserve">
<path d="M31.5,20c0-0.6-0.1-1.2-0.2-1.8L35,15l-3.1-5.1l-4.4,1.4c-1.1-0.9-2.3-1.6-3.6-2.1L23,5h-6l-1,4.2c-1.3,0.5-2.5,1.2-3.6,2.1
	L8.1,9.9L5,15l3.7,3.2c-0.1,0.6-0.2,1.2-0.2,1.8c0,0.6,0.1,1.2,0.2,1.8L5,25l3.1,5.1l4.4-1.4c1.1,0.9,2.3,1.6,3.6,2.1l1,4.2h6l1-4.2
	c1.3-0.5,2.5-1.2,3.6-2.1l4.4,1.4L35,25l-3.7-3.2C31.4,21.2,31.5,20.6,31.5,20z M32.4,25.4L31,27.7l-2.9-0.9l-1.1-0.4l-0.9,0.7
	c-0.9,0.8-1.9,1.3-2.9,1.7l-1,0.4L22,30.3L21.4,33h-2.8L18,30.3l-0.2-1.1l-1-0.4c-1.1-0.4-2.1-1-2.9-1.7l-0.9-0.7l-1.1,0.4L9,27.7
	l-1.4-2.3l2.4-2.1l0.8-0.7l-0.2-1.1c-0.1-0.5-0.1-1-0.1-1.5c0-0.4,0-0.9,0.1-1.5l0.2-1.1L10,16.7l-2.4-2.1L9,12.3l2.9,0.9l1.1,0.4
	l0.9-0.7c0.9-0.8,1.9-1.3,2.9-1.7l1-0.4L18,9.7L18.6,7h2.8L22,9.7l0.2,1.1l1,0.4c1.1,0.4,2.1,1,2.9,1.7l0.9,0.7l1.1-0.4l2.9-0.9
	l1.4,2.3L30,16.7l-0.8,0.7l0.2,1.1c0.1,0.6,0.1,1,0.1,1.5s0,0.9-0.1,1.5l-0.2,1.1l0.8,0.7L32.4,25.4z"/>
<path d="M20,15c-2.8,0-5,2.2-5,5s2.2,5,5,5s5-2.2,5-5S22.8,15,20,15z M20,23c-1.7,0-3-1.3-3-3c0-1.7,1.3-3,3-3c1.7,0,3,1.3,3,3
	C23,21.7,21.7,23,20,23z"/>
</svg>
