<svg version="1.1" id="Layer_1" xmlns="http://www.w3.org/2000/svg" xmlns:xlink="http://www.w3.org/1999/xlink" x="0px" y="0px"
	 viewBox="0 0 40 40" style="enable-background:new 0 0 40 40;" xml:space="preserve">
<style type="text/css">
	.st0{fill:#FFCE00;}
</style>
<path d="M20,15c-2.8,0-5,2.2-5,5s2.2,5,5,5s5-2.2,5-5S22.8,15,20,15z M20,23c-1.7,0-3-1.3-3-3s1.3-3,3-3s3,1.3,3,3S21.7,23,20,23z"
	/>
<g>
	<polygon class="st0" points="21.1,5.2 6,35.2 36,35.2 	"/>
	<g>
		<path d="M21,32.5c-0.3,0-0.5-0.1-0.8-0.2c-0.2-0.1-0.4-0.3-0.5-0.5c-0.1-0.2-0.2-0.5-0.2-0.8c0-0.3,0.1-0.6,0.2-0.8
			c0.1-0.2,0.3-0.4,0.5-0.5c0.2-0.1,0.5-0.2,0.8-0.2c0.3,0,0.5,0.1,0.8,0.2c0.2,0.1,0.4,0.3,0.5,0.5c0.1,0.2,0.2,0.5,0.2,0.8
			c0,0.3-0.1,0.6-0.2,0.8c-0.1,0.2-0.3,0.4-0.5,0.5C21.5,32.4,21.3,32.5,21,32.5z"/>
		<path d="M20.5,28.1c-0.9-3-1.4-5.6-1.4-7.8V18c0.1-1.6,0.8-2.6,1.9-2.9c1.1,0.3,1.8,1.3,1.9,2.9v2.3c0,2.2-0.5,4.8-1.4,7.8H20.5z"
			/>
	</g>
</g>
</svg>
