<?xml version="1.0" encoding="utf-8"?>
<!-- Generator: Adobe Illustrator 19.2.1, SVG Export Plug-In . SVG Version: 6.00 Build 0)  -->
<svg version="1.1" baseProfile="tiny" id="Layer_1" xmlns="http://www.w3.org/2000/svg" xmlns:xlink="http://www.w3.org/1999/xlink"
	 x="0px" y="0px" viewBox="0 0 75 75" xml:space="preserve">
<path fill="#3C6DF0" d="M17,14.6L17,14.6c1.2-1,1.3-2.7,0.3-3.9c-1-1.1-2.7-1.3-3.9-0.2C1.8,20.6-2.3,36.8,3.1,51.2
	S22.3,75.1,37.6,75C53,74.9,66.7,65.3,72,50.9c5.3-14.4,1-30.6-10.6-40.6c-2.8-2.4-6.3,1.8-3.5,4.1c7,5.9,11,14.7,11,23.8
	c0,17.3-14,31.3-31.3,31.3S6.2,55.5,6.2,38.2C6.2,29.2,10.1,20.5,17,14.6z"/>
<path fill="#3C6DF0" d="M40.2,40.8V2.7c0-3.6-5.4-3.6-5.4,0v38.1c0,1.5,1.2,2.8,2.7,2.8C39,43.6,40.3,42.3,40.2,40.8z"/>
</svg>
