<?xml version="1.0" encoding="UTF-8"?>
<svg width="16px" height="16px" viewBox="0 0 16 16" version="1.1" xmlns="http://www.w3.org/2000/svg" xmlns:xlink="http://www.w3.org/1999/xlink">
  <!-- Generator: Sketch 51.3 (57544) - http://www.bohemiancoding.com/sketch -->
  <title>Color</title>
  <desc>Created with Sketch.</desc>
  <defs>
    <path d="M5.45168121,9.45239833 L3.92297649,10.3503996 L3.3839283,9.40334698 L6.52909537,7.51649394 L8.46610839,10.6672992 L7.59606458,11.2294437 L6.52605011,9.52808212 C6.19312638,10.0457765 6,10.661907 6,11.3231446 C6,13.1584666 7.4878225,14.6462891 9.32314457,14.6462891 C9.63208425,14.6462891 9.93117755,14.6041317 10.2149855,14.5252558 L10.8514895,15.543875 C10.3957843,15.7038179 9.90574889,15.7907969 9.39539845,15.7907969 C6.96788692,15.7907969 5,13.82291 5,11.3953985 C5,10.6978517 5.16248906,10.0382564 5.45168121,9.45239833 Z M13.6761977,12.3968658 L15.1426944,11.5259372 L15.6976404,12.5295939 L12.5524734,14.4164469 L10.6154604,11.2656417 L11.5942993,10.642476 L12.5328031,12.1873649 C12.606818,11.9117954 12.6462891,11.6220795 12.6462891,11.3231446 C12.6462891,9.6869433 11.4637923,8.32692897 9.90677958,8.05108264 L9.25143562,7.00231308 C9.29923437,7.00077496 9.34722591,7 9.39539845,7 C11.82291,7 13.7907969,8.96788692 13.7907969,11.3953985 C13.7907969,11.7399157 13.75116,12.0751754 13.6761977,12.3968658 Z M7,1 L1.45454545,1 C1.20350693,1 1,1.26455901 1,1.59090909 L1,13.4090909 C1,13.735441 1.20350693,14 1.45454545,14 L4.71846972,14 C4.92933322,14.3626788 5.1817858,14.6981892 5.4692963,15 L1.38461538,15 C0.619913423,15 0,14.2251082 0,13.2692308 L0,1.73076923 C0,0.774891779 0.619913423,0 1.38461538,0 L7.38461538,0 C7.507023,0 7.62441711,0.0607827925 7.71097236,0.168976857 L11.8648185,4.56754224 C11.9513738,4.6757363 12,4.82247895 12,4.97548846 L12,6.71846972 C11.6856583,6.5357097 11.3509075,6.38419167 11,6.268168 L11,5.0114117 L7.72727273,5.0114117 C7.32561109,5.0114117 7,4.45453248 7,4.00162311 L7,1 Z M8,1.86255386 L8,4.00162311 L10.045052,4.00162311 L8,1.86255386 Z" id="path-1"></path>
  </defs>
  <g id="Symbols" stroke="none" stroke-width="1" fill="none" fill-rule="evenodd">
    <g id="Icon/UpdateFILE">
      <g id="Color">
        <mask id="mask-2" fill="white">
          <use xlink:href="#path-1"></use>
        </mask>
        <use id="Mask" fill="#3C6DF0" fill-rule="nonzero" xlink:href="#path-1"></use>
        <g id="Colors/Primary/-Active-Blue40" mask="url(#mask-2)" fill="#3C6DF0">
          <rect id="Rectangle-6-Copy-2" x="0" y="0" width="16" height="16"></rect>
        </g>
      </g>
    </g>
  </g>
</svg>