<svg xmlns="http://www.w3.org/2000/svg" viewBox="0 0 25 25"><defs/><g fill="#fff"><path style="line-height:normal;text-indent:0;text-align:start;text-decoration-line:none;text-decoration-style:solid;text-decoration-color:#000;text-transform:none;block-progression:tb;white-space:normal;isolation:auto;mix-blend-mode:normal;solid-color:#000;solid-opacity:1" d="M8 4C5.8 4 4 5.8 4 8v9c0 2.2 1.8 4 4 4h9c2.2 0 4-1.8 4-4V8c0-2.2-1.8-4-4-4zm0 2h9c1.13 0 2 .87 2 2v7c0 1.13-.87 2-2 2H8c-1.13 0-2-.87-2-2V8c0-1.13.87-2 2-2z" color="#000" font-family="sans-serif" font-weight="400" overflow="visible"/><path d="M13.91 13.72H11.1L10.65 15H8.83l2.6-7h2.15l2.59 7h-1.82l-.44-1.28zm-2.37-1.3h1.92l-.96-2.78-.96 2.79z" font-family="DejaVu Sans" font-size="10" font-weight="700" letter-spacing="0" word-spacing="0"/></g></svg>
