<svg xmlns="http://www.w3.org/2000/svg" viewBox="0 0 2 254"><title>img-dots-tall-06</title><rect width="2" height="2" style="fill:#ffffff"/><rect y="28.07" width="2" height="2" style="fill:#ffffff"/><rect y="21" width="2" height="2" style="fill:#ffffff"/><rect y="13.98" width="2" height="2" style="fill:#ffffff"/><rect y="7.05" width="2" height="2" style="fill:#ffffff"/><rect y="35.01" width="2" height="2" style="fill:#ffffff"/><rect y="63.05" width="2" height="2" style="fill:#ffffff"/><rect y="56.01" width="2" height="2" style="fill:#ffffff"/><rect y="48.96" width="2" height="2" style="fill:#ffffff"/><rect y="42.02" width="2" height="2" style="fill:#ffffff"/><rect y="69.97" width="2" height="2" style="fill:#ffffff"/><rect y="97.88" width="2" height="2" style="fill:#ffffff"/><rect y="91" width="2" height="2" style="fill:#ffffff"/><rect y="83.96" width="2" height="2" style="fill:#ffffff"/><rect y="77.01" width="2" height="2" style="fill:#ffffff"/><rect y="103.98" width="2" height="2" style="fill:#ffffff"/><rect y="132" width="2" height="2" style="fill:#ffffff"/><rect y="125.02" width="2" height="2" style="fill:#ffffff"/><rect y="117.99" width="2" height="2" style="fill:#ffffff"/><rect y="110.99" width="2" height="2" style="fill:#ffffff"/><rect y="138.95" width="2" height="2" style="fill:#ffffff"/><rect y="166.95" width="2" height="2" style="fill:#ffffff"/><rect y="160.02" width="2" height="2" style="fill:#ffffff"/><rect y="152.95" width="2" height="2" style="fill:#ffffff"/><rect y="146.04" width="2" height="2" style="fill:#ffffff"/><rect y="173.98" width="2" height="2" style="fill:#ffffff"/><rect y="209" width="2" height="2" style="fill:#ffffff"/><rect y="194.98" width="2" height="2" style="fill:#ffffff"/><rect y="187.95" width="2" height="2" style="fill:#ffffff"/><rect y="201.96" width="2" height="2" style="fill:#ffffff"/><rect y="180.92" width="2" height="2" style="fill:#ffffff"/><rect y="222.93" width="2" height="2" style="fill:#ffffff"/><rect y="229.03" width="2" height="2" style="fill:#ffffff"/><rect y="215.99" width="2" height="2" style="fill:#ffffff"/><rect y="235.01" width="2" height="2" style="fill:#ffffff"/></svg>