<svg xmlns="http://www.w3.org/2000/svg" viewBox="0 0 2 254"><title>img-dots-tall-06</title>
<rect width="2" height="2" style="fill:#ffffff"/><rect y="7" width="2" height="2" style="fill:#ffffff"/><rect y="14" width="2" height="2" style="fill:#ffffff"/><rect y="21" width="2" height="2" style="fill:#ffffff"/><rect y="28" width="2" height="2" style="fill:#ffffff"/><rect y="35" width="2" height="2" style="fill:#ffffff"/><rect y="42" width="2" height="2" style="fill:#ffffff"/><rect y="49" width="2" height="2" style="fill:#ffffff"/><rect y="56" width="2" height="2" style="fill:#ffffff"/><rect y="63" width="2" height="2" style="fill:#ffffff"/><rect y="70" width="2" height="2" style="fill:#ffffff"/><rect y="77" width="2" height="2" style="fill:#ffffff"/><rect y="84" width="2" height="2" style="fill:#ffffff"/><rect y="91" width="2" height="2" style="fill:#ffffff"/><rect y="98" width="2" height="2" style="fill:#ffffff"/><rect y="105" width="2" height="2" style="fill:#ffffff"/><rect y="112" width="2" height="2" style="fill:#ffffff"/><rect y="119" width="2" height="2" style="fill:#ffffff"/><rect y="126" width="2" height="2" style="fill:#ffffff"/><rect y="133" width="2" height="2" style="fill:#ffffff"/><rect y="140" width="2" height="2" style="fill:#ffffff"/><rect y="147" width="2" height="2" style="fill:#ffffff"/><rect y="154" width="2" height="2" style="fill:#ffffff"/><rect y="161" width="2" height="2" style="fill:#ffffff"/><rect y="168" width="2" height="2" style="fill:#ffffff"/><rect y="175" width="2" height="2" style="fill:#ffffff"/><rect y="182" width="2" height="2" style="fill:#ffffff"/><rect y="189" width="2" height="2" style="fill:#ffffff"/><rect y="196" width="2" height="2" style="fill:#ffffff"/><rect y="203" width="2" height="2" style="fill:#ffffff"/><rect y="210" width="2" height="2" style="fill:#ffffff"/><rect y="217" width="2" height="2" style="fill:#ffffff"/><rect y="224" width="2" height="2" style="fill:#ffffff"/><rect y="231" width="2" height="2" style="fill:#ffffff"/><rect y="238" width="2" height="2" style="fill:#ffffff"/></svg>