<?xml version="1.0" encoding="utf-8"?>
<!-- Generator: Adobe Illustrator 19.2.1, SVG Export Plug-In . SVG Version: 6.00 Build 0)  -->
<svg version="1.1" baseProfile="tiny" id="logo" xmlns="http://www.w3.org/2000/svg" xmlns:xlink="http://www.w3.org/1999/xlink"
	 x="0px" y="0px" viewBox="0 0 356.5 142.8" xml:space="preserve">
<path fill="#1F70C1" d="M-0.5,0v9.8H69V0H-0.5z M78.8,0v9.8h99c0,0-10.1-9.8-23.5-9.8H78.8z M197.2,0v9.8h59.9L253.6,0H197.2z
	 M300.1,0l-3.6,9.8h59.4V0H300.1z M-0.5,19v9.8H69V19H-0.5z M78.8,19v9.8h110.5c0,0-1.3-7.5-3.5-9.8H78.8z M197.2,19v9.8h66.5
	l-3.3-9.8H197.2z M293,19l-3.3,9.8h66.2V19H293z M19.4,38v9.8h30.1V38H19.4z M98.8,38v9.8h30.1V38H98.8z M158.1,38v9.8h30.1
	c0,0,1.9-5.2,1.9-9.8H158.1z M217.2,38v9.8h53.4L267,38H217.2z M286.4,38l-3.6,9.8h53.6V38H286.4z M19.4,57v9.8h30.1V57H19.4z
	 M98.8,57v9.8h76.9c0,0,6.4-5,8.5-9.8C184.2,57,98.8,57,98.8,57z M217.2,57v9.8h30.1v-5.4l1.9,5.4h55.1l2.1-5.4v5.4h30.1V57H280
	l-3,8.3l-3-8.3C274,57,217.2,57,217.2,57z M19.4,76v9.8h30.1V76H19.4z M98.8,76v9.8h85.3c-2.1-4.7-8.5-9.8-8.5-9.8H98.8z M217.2,76
	v9.8h30.1V76H217.2z M252.8,76l3.6,9.8h41.3l3.5-9.8H252.8z M306.4,76v9.8h30.1V76H306.4z M19.4,95v9.8h30.1V95H19.4z M98.8,95v9.8
	h30.1V95H98.8z M158.1,95v9.8h32c0-4.6-1.9-9.8-1.9-9.8H158.1z M217.2,95v9.8h30.1V95H217.2z M259.6,95l3.5,9.8h27.7l3.6-9.8H259.6z
	 M306.4,95v9.8h30.1V95H306.4z M0,114v9.8h69.5V114H0z M78.8,114v9.8h107c2.3-2.2,3.5-9.8,3.5-9.8H78.8z M197.8,114v9.8h49.5V114
	H197.8z M266.4,114l3.6,9.8h14.1l3.4-9.8H266.4z M306.4,114v9.8h50.1V114H306.4z M0,133v9.8h69.5V133H0z M78.8,133v9.8h75.5
	c13.4,0,23.5-9.8,23.5-9.8H78.8z M197.8,133v9.8h49.5V133H197.8z M273.3,133l3.5,9.7h0.6l3.5-9.8h-7.6V133z M306.4,133v9.8h50.1V133
	H306.4z"/>
</svg>
